# xmcd CD database file
#
# Track frame offsets:
#	150
#	22512
#	41358
#	56854
#	70942
#	89215
#	105508
#	123960
#	138710
#	158297
#	179312
#
# Disc length: 2670 seconds
#
# Revision: 0
# Processed by: cddbd v1.5.1PL2 Copyright (c) Steve Scherf et al.
# Submitted via: CD2WAV32(JP) R3.22
#
DISCID=8a0a6c0b
DTITLE=Taxiride - Axiomatic
DYEAR=2006
DGENRE=Rock
TTITLE0=Finally Falling
TTITLE1=Oh Yeah
TTITLE2=Hold On
TTITLE3=You Gotta Help Me
TTITLE4=Everything and Nothing
TTITLE5=The Fatal And The Fragile
TTITLE6=Stone
TTITLE7=The Nation
TTITLE8=San Francisco
TTITLE9=What Can I Say
TTITLE10=Tripper Red
EXTD=
EXTT0=
EXTT1=
EXTT2=
EXTT3=
EXTT4=
EXTT5=
EXTT6=
EXTT7=
EXTT8=
EXTT9=
EXTT10=
PLAYORDER=
